<svg width="119" height="319" viewBox="0 0 119 319" fill="none" xmlns="http://www.w3.org/2000/svg">
<path d="M119 496.5C119 503.404 113.404 509 106.5 509C99.5964 509 94 503.404 94 496.5L94 134.5C94 127.596 99.5965 122 106.5 122C113.404 122 119 127.596 119 134.5L119 496.5Z" fill="#F55D00"/>
<path d="M25 624.5C25 631.404 19.4036 637 12.5 637C5.59644 637 4.89256e-07 631.404 1.09278e-06 624.5L3.27398e-05 262.5C3.33434e-05 255.596 5.59648 250 12.5 250C19.4036 250 25 255.596 25 262.5L25 624.5Z" fill="#F55D00"/>
<path d="M72 374.5C72 381.404 66.4036 387 59.5 387C52.5964 387 47 381.404 47 374.5L47 12.5C47 5.59643 52.5965 -1.69631e-06 59.5 -1.09278e-06C66.4036 -4.89256e-07 72 5.59644 72 12.5L72 374.5Z" fill="#F55D00"/>
<circle cx="12.5" cy="225.5" r="12.5" transform="rotate(-180 12.5 225.5)" fill="#F55D00"/>
</svg>
