<svg width="119" height="318" viewBox="0 0 119 318" fill="none" xmlns="http://www.w3.org/2000/svg">
<path d="M0 -178.5C0 -185.404 5.59644 -191 12.5 -191V-191C19.4036 -191 25 -185.404 25 -178.5V183.5C25 190.404 19.4036 196 12.5 196V196C5.59644 196 0 190.404 0 183.5V-178.5Z" fill="#F55D00"/>
<path d="M94 -306.5C94 -313.404 99.5964 -319 106.5 -319V-319C113.404 -319 119 -313.404 119 -306.5V55.5C119 62.4036 113.404 68 106.5 68V68C99.5964 68 94 62.4036 94 55.5V-306.5Z" fill="#F55D00"/>
<path d="M47 -56.5C47 -63.4036 52.5964 -69 59.5 -69V-69C66.4036 -69 72 -63.4036 72 -56.5V305.5C72 312.404 66.4036 318 59.5 318V318C52.5964 318 47 312.404 47 305.5V-56.5Z" fill="#F55D00"/>
<circle cx="106.5" cy="92.5" r="12.5" fill="#F55D00"/>
</svg>
